<svg width="493" height="182" viewBox="0 0 493 182" fill="none" xmlns="http://www.w3.org/2000/svg">
<path d="M264.141 180.998H267.824V143.547C266.617 143.728 265.385 143.86 264.141 143.941V180.998Z" fill="#6C9FFF"/>
<path d="M273.414 180.997H277.097V141.17C275.915 141.626 274.683 142.033 273.414 142.389V180.997Z" fill="#6C9FFF"/>
<path d="M282.609 138.436V181.002H286.293V135.916C284.848 137.029 283.654 137.811 282.966 138.23C282.847 138.298 282.728 138.367 282.609 138.436Z" fill="#6C9FFF"/>
<path d="M318.512 41.1234C308.682 41.1234 299.633 45.088 292.461 51.6977C293.255 52.6169 294.005 53.5862 294.731 54.593C301.272 48.471 309.532 44.8004 318.512 44.8004C339.667 44.8004 356.876 65.1234 356.876 90.0989C356.876 115.074 339.667 135.398 318.512 135.398C309.864 135.398 301.878 131.996 295.45 126.274C294.781 127.243 294.043 128.225 293.23 129.207C300.271 135.398 309.032 139.081 318.512 139.081C341.699 139.081 360.559 117.107 360.559 90.0989C360.559 63.0911 341.699 41.1172 318.512 41.1172V41.1234Z" fill="#6C9FFF"/>
<path d="M318.02 53.948C334.654 53.948 348.186 70.169 348.186 90.1043C348.186 110.04 334.654 126.261 318.02 126.261C311.098 126.261 304.719 123.447 299.629 118.738C299.16 119.82 298.61 120.977 297.966 122.171C303.581 127.049 310.522 129.944 318.026 129.944C336.692 129.944 351.875 112.072 351.875 90.1106C351.875 68.1491 336.692 50.2773 318.026 50.2773C310.235 50.2773 303.056 53.3977 297.328 58.6254C297.947 59.7073 298.541 60.8328 299.092 61.9897C304.269 56.9683 310.86 53.9543 318.026 53.9543L318.02 53.948Z" fill="#6C9FFF"/>
<path d="M302.71 71.8074C306.575 67.1425 311.877 64.2535 317.73 64.2535C329.505 64.2535 339.085 75.9346 339.085 90.2858C339.085 104.637 329.505 116.318 317.73 116.318C311.977 116.318 306.756 113.517 302.91 108.989C302.554 110.403 302.166 111.784 301.722 113.116C306.062 117.412 311.646 120.001 317.73 120.001C331.538 120.001 342.768 106.669 342.768 90.2858C342.768 73.9022 331.538 60.5703 317.73 60.5703C311.521 60.5703 305.83 63.278 301.453 67.7365C301.541 67.9804 301.628 68.2118 301.716 68.4557C302.078 69.5437 302.404 70.6631 302.71 71.8074Z" fill="#6C9FFF"/>
<path d="M68.8171 57.8176C66.1782 53.5466 62.5388 50.0448 57.9739 47.3997C52.8838 44.4544 46.5805 42.9599 39.2454 42.9599C33.6425 42.9599 28.3585 44.0104 23.5498 46.0802C18.7285 48.1563 14.5263 51.2767 11.0495 55.3538C7.57894 59.4247 4.84002 64.4961 2.90776 70.4242C0.975504 76.3397 0 83.3121 0 91.1537C0 98.9953 0.975504 105.774 2.90776 111.683C4.30224 115.954 6.18447 121.326 11.0495 126.753C16.4148 132.738 22.4992 135.464 25.5571 136.596C28.74 137.778 38.9078 141.542 49.9322 137.096C64.0959 131.381 68.2293 116.73 68.7045 114.929C68.742 122.339 68.7796 129.749 68.8171 137.159H93.8051V0L68.8171 8.70453V57.8113V57.8176ZM27.3517 78.7785C28.5211 75.408 30.0969 72.6128 32.0292 70.4867C33.9614 68.3606 36.2439 66.7597 38.8202 65.7342C41.4028 64.7024 44.1605 64.1771 46.9995 64.1771C53.2027 64.1771 58.4429 66.4033 62.5763 70.7931C66.716 75.1954 68.8171 81.8489 68.8171 90.5659V91.36C68.8171 100.215 66.716 106.937 62.5763 111.333C58.4429 115.723 53.2027 117.949 46.9995 117.949C44.148 117.949 41.3965 117.424 38.8139 116.392C36.2439 115.366 33.9552 113.765 32.0229 111.639C30.0844 109.507 28.5086 106.718 27.3455 103.341C26.1761 99.9583 25.5821 95.8624 25.5821 91.16C25.5821 86.4575 26.1761 82.1678 27.3455 78.7785H27.3517Z" fill="#0B261E"/>
<path d="M167.068 97.1184C167.068 99.701 166.574 102.252 165.611 104.704C164.642 107.161 163.297 109.356 161.621 111.226C159.945 113.095 157.919 114.596 155.599 115.691C153.286 116.785 150.678 117.335 147.839 117.335C143.087 117.335 139.253 115.747 136.446 112.614C133.619 109.469 132.187 103.515 132.187 94.9235V44.541H107.199V103.078C107.199 109.606 108.043 115.215 109.713 119.743C111.383 124.295 113.728 128.066 116.685 130.949C119.637 133.838 123.145 135.951 127.11 137.227C133.075 139.147 138.309 139.178 139.679 139.14C143.474 139.034 150.409 138.834 156.875 134.225C165.186 128.303 167.149 119.055 167.593 116.591C167.418 123.445 167.243 130.298 167.068 137.152H192.25V44.5473H167.268L167.068 97.1184Z" fill="#0B261E"/>
<path d="M372.797 137.19H397.985V0.03125L372.797 8.77955V137.19Z" fill="#0B261E"/>
<path d="M488.732 63.3465C486.387 58.3939 483.198 54.3544 479.246 51.3465C475.306 48.345 470.766 46.1751 465.751 44.8994C460.767 43.6363 455.539 42.9922 450.224 42.9922C442.808 42.9922 436.117 43.6675 430.333 44.9932C424.561 46.3189 420.015 47.7322 416.819 49.2017L416.494 49.3517L420.24 69.9687L420.771 69.7311C424.317 68.1553 428.313 66.7608 432.64 65.5789C436.955 64.4033 441.463 63.803 446.041 63.803C452.275 63.803 457.278 65.0474 460.898 67.5049C464.382 69.8687 466.376 74.1397 466.833 80.1991C456.577 80.4805 447.81 81.4497 440.769 83.0818C433.584 84.7452 427.781 87.0088 423.516 89.8103C419.227 92.6243 416.094 96.0323 414.205 99.9406C412.329 103.83 411.379 108.182 411.379 112.872C411.379 120.933 414.112 127.405 419.489 132.114C424.848 136.81 431.646 139.186 439.681 139.186C441.939 139.186 445.709 139.242 449.768 137.773C462.524 133.152 466.701 117.8 467.296 115.486C467.221 122.721 467.145 129.962 467.07 137.197H492.052L492.252 82.0438C492.252 74.5899 491.064 68.3054 488.725 63.3528L488.732 63.3465ZM466.877 101.079C466.226 106.913 464.031 111.634 460.354 115.117C456.684 118.6 452.469 120.364 447.842 120.364C444.008 120.364 441.069 119.401 439.112 117.512C437.149 115.617 436.092 113.179 435.973 110.271C435.842 105.787 438.068 102.511 442.77 100.259C447.466 98.0083 455.577 96.5951 466.87 96.0511V101.085L466.877 101.079Z" fill="#0B261E"/>
<path d="M287.027 55.2486C283.544 51.2402 279.31 48.1511 274.426 46.0813C269.549 44.0115 264.233 42.9609 258.631 42.9609C251.289 42.9609 245.055 44.4555 240.096 47.4007C235.65 50.0459 232.079 53.5414 229.453 57.8124V44.3554H204.465V180.52H229.453C229.584 159.14 229.709 137.754 229.841 116.374C231.066 119.989 234.33 127.78 242.278 133.189C254.228 141.318 269.574 139.161 278.879 133.508C279.585 133.077 283.3 130.782 287.02 126.561C291.942 120.977 293.918 115.43 295.262 111.39C297.257 105.406 298.27 98.4648 298.27 90.7608C298.27 83.0568 297.257 76.147 295.262 70.2251C293.261 64.297 290.491 59.2569 287.02 55.2548L287.027 55.2486ZM270.931 103.33C269.761 106.707 268.192 109.496 266.253 111.628C264.321 113.754 262.032 115.355 259.462 116.38C256.88 117.412 254.128 117.937 251.283 117.937C245.08 117.937 239.84 115.711 235.706 111.322C231.566 106.925 229.465 100.209 229.465 91.3486V90.5545C229.465 81.8312 231.566 75.1777 235.706 70.7817C239.84 66.3919 245.08 64.1657 251.283 64.1657C254.128 64.1657 256.88 64.691 259.462 65.7228C262.039 66.7546 264.321 68.3554 266.253 70.4753C268.186 72.6014 269.761 75.3903 270.931 78.7671C272.1 82.1501 272.694 86.3148 272.694 91.1485C272.694 95.9823 272.1 99.9468 270.931 103.33Z" fill="#0B261E"/>
</svg>
